<?xml version="1.0" encoding="UTF-8" standalone="no"?>
<!DOCTYPE svg PUBLIC "-//W3C//DTD SVG 1.1//EN"
 "http://www.w3.org/Graphics/SVG/1.1/DTD/svg11.dtd">
<!-- Generated by graphviz version 7.0.5 (20221223.1930)
 -->
<!-- Title: G Pages: 1 -->
<svg width="985pt" height="546pt"
 viewBox="0.00 0.00 984.72 545.67" xmlns="http://www.w3.org/2000/svg" xmlns:xlink="http://www.w3.org/1999/xlink">
<g id="graph0" class="graph" transform="scale(1 1) rotate(0) translate(4 541.67)">
<title>G</title><style>.edge>path:hover{stroke-width:8}</style>
<polygon fill="white" stroke="none" points="-4,4 -4,-541.67 980.72,-541.67 980.72,4 -4,4"/>
<!-- IPython -->
<g id="node1" class="node">
<title>IPython</title><style>.edge>path:hover{stroke-width:8}</style>
<ellipse fill="#d92626" stroke="black" cx="560.5" cy="-444.46" rx="29.37" ry="18"/>
<text text-anchor="middle" x="560.5" y="-441.96" font-family="Helvetica,sans-Serif" font-size="10.00" fill="#ffffff">IPython</text>
</g>
<!-- domblar_tracker -->
<g id="node16" class="node">
<title>domblar_tracker</title><style>.edge>path:hover{stroke-width:8}</style>
<ellipse fill="#a1a135" stroke="black" cx="576.5" cy="-185.84" rx="37.45" ry="21.43"/>
<text text-anchor="middle" x="576.5" y="-188.84" font-family="Helvetica,sans-Serif" font-size="10.00" fill="#000000">domblar.</text>
<text text-anchor="middle" x="576.5" y="-177.84" font-family="Helvetica,sans-Serif" font-size="10.00" fill="#000000">tracker</text>
</g>
<!-- IPython&#45;&gt;domblar_tracker -->
<g id="edge1" class="edge">
<title>IPython&#45;&gt;domblar_tracker</title><style>.edge>path:hover{stroke-width:8}</style>
<path fill="none" stroke="black" d="M546.75,-428.55C537.93,-417.91 527.26,-402.79 522.5,-387.24 516.98,-369.22 516.72,-362.77 522.5,-344.82 533.24,-311.48 568.9,-315.85 568.5,-280.83"/>
<path fill="none" stroke="black" d="M568.5,-278.83C567.66,-258.92 569.53,-236.65 571.66,-219.02"/>
<polygon fill="#d92626" stroke="black" points="575.13,-219.5 572.96,-209.13 568.19,-218.59 575.13,-219.5"/>
</g>
<!-- ipywidgets -->
<g id="node18" class="node">
<title>ipywidgets</title><style>.edge>path:hover{stroke-width:8}</style>
<ellipse fill="#4cb34c" stroke="black" cx="661.5" cy="-366.03" rx="37.17" ry="18"/>
<text text-anchor="middle" x="661.5" y="-363.53" font-family="Helvetica,sans-Serif" font-size="10.00" fill="#000000">ipywidgets</text>
</g>
<!-- IPython&#45;&gt;ipywidgets -->
<g id="edge2" class="edge">
<title>IPython&#45;&gt;ipywidgets</title><style>.edge>path:hover{stroke-width:8}</style>
<path fill="none" stroke="black" d="M578.55,-429.79C593.82,-418.24 615.95,-401.49 633.51,-388.21"/>
<polygon fill="#d92626" stroke="black" points="635.15,-391.36 641.01,-382.53 630.93,-385.77 635.15,-391.36"/>
</g>
<!-- IPython_display -->
<g id="node2" class="node">
<title>IPython_display</title><style>.edge>path:hover{stroke-width:8}</style>
<ellipse fill="#b34c4c" stroke="black" cx="568.5" cy="-366.03" rx="37.45" ry="21.43"/>
<text text-anchor="middle" x="568.5" y="-369.03" font-family="Helvetica,sans-Serif" font-size="10.00" fill="#ffffff">IPython.</text>
<text text-anchor="middle" x="568.5" y="-358.03" font-family="Helvetica,sans-Serif" font-size="10.00" fill="#ffffff">display</text>
</g>
<!-- IPython_display&#45;&gt;domblar_tracker -->
<g id="edge3" class="edge">
<title>IPython_display&#45;&gt;domblar_tracker</title><style>.edge>path:hover{stroke-width:8}</style>
<path fill="none" stroke="black" d="M568.63,-344.27C568.71,-327.22 568.75,-302.46 568.5,-280.83"/>
</g>
<!-- domblar_chord_theory -->
<g id="node3" class="node">
<title>domblar_chord_theory</title><style>.edge>path:hover{stroke-width:8}</style>
<ellipse fill="#b4b42d" stroke="black" cx="188.5" cy="-99.64" rx="51.74" ry="21.43"/>
<text text-anchor="middle" x="188.5" y="-102.64" font-family="Helvetica,sans-Serif" font-size="10.00" fill="#000000">domblar.</text>
<text text-anchor="middle" x="188.5" y="-91.64" font-family="Helvetica,sans-Serif" font-size="10.00" fill="#000000">chord_theory</text>
</g>
<!-- domblar_domblar -->
<g id="node5" class="node">
<title>domblar_domblar</title><style>.edge>path:hover{stroke-width:8}</style>
<ellipse fill="#88883a" stroke="black" cx="413.5" cy="-21.21" rx="37.45" ry="21.43"/>
<text text-anchor="middle" x="413.5" y="-24.21" font-family="Helvetica,sans-Serif" font-size="10.00" fill="#ffffff">domblar.</text>
<text text-anchor="middle" x="413.5" y="-13.21" font-family="Helvetica,sans-Serif" font-size="10.00" fill="#ffffff">domblar</text>
</g>
<!-- domblar_chord_theory&#45;&gt;domblar_domblar -->
<g id="edge4" class="edge">
<title>domblar_chord_theory&#45;&gt;domblar_domblar</title><style>.edge>path:hover{stroke-width:8}</style>
<path fill="none" stroke="black" d="M227.69,-85.33C267.71,-71.73 329.65,-50.69 370.87,-36.69"/>
<polygon fill="#b4b42d" stroke="black" points="371.88,-40.05 380.22,-33.52 369.63,-33.42 371.88,-40.05"/>
</g>
<!-- domblar_nrt_transformations -->
<g id="node10" class="node">
<title>domblar_nrt_transformations</title><style>.edge>path:hover{stroke-width:8}</style>
<ellipse fill="#acac49" stroke="black" cx="188.5" cy="-21.21" rx="71.34" ry="21.43"/>
<text text-anchor="middle" x="188.5" y="-24.21" font-family="Helvetica,sans-Serif" font-size="10.00" fill="#000000">domblar.</text>
<text text-anchor="middle" x="188.5" y="-13.21" font-family="Helvetica,sans-Serif" font-size="10.00" fill="#000000">nrt_transformations</text>
</g>
<!-- domblar_chord_theory&#45;&gt;domblar_nrt_transformations -->
<g id="edge5" class="edge">
<title>domblar_chord_theory&#45;&gt;domblar_nrt_transformations</title><style>.edge>path:hover{stroke-width:8}</style>
<path fill="none" stroke="black" d="M188.5,-77.76C188.5,-70.59 188.5,-62.4 188.5,-54.55"/>
<polygon fill="#b4b42d" stroke="black" points="192,-54.59 188.5,-44.59 185,-54.59 192,-54.59"/>
</g>
<!-- domblar_comma_pumps -->
<g id="node4" class="node">
<title>domblar_comma_pumps</title><style>.edge>path:hover{stroke-width:8}</style>
<ellipse fill="#acac49" stroke="black" cx="775.5" cy="-366.03" rx="58.88" ry="21.43"/>
<text text-anchor="middle" x="775.5" y="-369.03" font-family="Helvetica,sans-Serif" font-size="10.00" fill="#000000">domblar.</text>
<text text-anchor="middle" x="775.5" y="-358.03" font-family="Helvetica,sans-Serif" font-size="10.00" fill="#000000">comma_pumps</text>
</g>
<!-- domblar_edo -->
<g id="node6" class="node">
<title>domblar_edo</title><style>.edge>path:hover{stroke-width:8}</style>
<ellipse fill="#dddd18" stroke="black" cx="315.5" cy="-279.83" rx="40.74" ry="18"/>
<text text-anchor="middle" x="315.5" y="-277.33" font-family="Helvetica,sans-Serif" font-size="10.00" fill="#000000">domblar.edo</text>
</g>
<!-- domblar_edo&#45;&gt;domblar_chord_theory -->
<g id="edge6" class="edge">
<title>domblar_edo&#45;&gt;domblar_chord_theory</title><style>.edge>path:hover{stroke-width:8}</style>
<path fill="none" stroke="black" d="M293.85,-264.35C277.51,-252.55 255.44,-234.66 240.5,-214.84 221.37,-189.46 207.15,-155.91 198.46,-131.76"/>
<polygon fill="#dddd18" stroke="black" points="201.83,-130.79 195.25,-122.49 195.22,-133.08 201.83,-130.79"/>
</g>
<!-- domblar_players -->
<g id="node11" class="node">
<title>domblar_players</title><style>.edge>path:hover{stroke-width:8}</style>
<ellipse fill="#a8a838" stroke="black" cx="446.5" cy="-99.64" rx="37.45" ry="21.43"/>
<text text-anchor="middle" x="446.5" y="-102.64" font-family="Helvetica,sans-Serif" font-size="10.00" fill="#000000">domblar.</text>
<text text-anchor="middle" x="446.5" y="-91.64" font-family="Helvetica,sans-Serif" font-size="10.00" fill="#000000">players</text>
</g>
<!-- domblar_edo&#45;&gt;domblar_players -->
<g id="edge7" class="edge">
<title>domblar_edo&#45;&gt;domblar_players</title><style>.edge>path:hover{stroke-width:8}</style>
<path fill="none" stroke="black" d="M344.12,-266.59C383.86,-249.46 451.27,-219.87 454.5,-214.84 470.23,-190.27 465.29,-156.34 458.22,-131.86"/>
<polygon fill="#dddd18" stroke="black" points="461.59,-130.92 455.23,-122.45 454.92,-133.04 461.59,-130.92"/>
</g>
<!-- domblar_tonal_theory -->
<g id="node15" class="node">
<title>domblar_tonal_theory</title><style>.edge>path:hover{stroke-width:8}</style>
<ellipse fill="#a8a838" stroke="black" cx="49.5" cy="-185.84" rx="49.49" ry="21.43"/>
<text text-anchor="middle" x="49.5" y="-188.84" font-family="Helvetica,sans-Serif" font-size="10.00" fill="#000000">domblar.</text>
<text text-anchor="middle" x="49.5" y="-177.84" font-family="Helvetica,sans-Serif" font-size="10.00" fill="#000000">tonal_theory</text>
</g>
<!-- domblar_edo&#45;&gt;domblar_tonal_theory -->
<g id="edge8" class="edge">
<title>domblar_edo&#45;&gt;domblar_tonal_theory</title><style>.edge>path:hover{stroke-width:8}</style>
<path fill="none" stroke="black" d="M293.26,-264.59C284.83,-259.67 274.97,-254.48 265.5,-250.84 198.7,-225.09 176.13,-238.32 108.5,-214.84 102.61,-212.79 96.52,-210.33 90.6,-207.73"/>
<polygon fill="#dddd18" stroke="black" points="92.12,-204.58 81.57,-203.59 89.2,-210.94 92.12,-204.58"/>
</g>
<!-- domblar_edo&#45;&gt;domblar_tracker -->
<g id="edge9" class="edge">
<title>domblar_edo&#45;&gt;domblar_tracker</title><style>.edge>path:hover{stroke-width:8}</style>
<path fill="none" stroke="black" d="M343.11,-266.28C354.58,-261.24 368.08,-255.52 380.5,-250.84 408.69,-240.19 484.59,-215.86 533.24,-200.46"/>
<polygon fill="#dddd18" stroke="black" points="534.16,-203.84 542.64,-197.49 532.05,-197.17 534.16,-203.84"/>
</g>
<!-- domblar_gestures -->
<g id="node7" class="node">
<title>domblar_gestures</title><style>.edge>path:hover{stroke-width:8}</style>
<ellipse fill="#c2c247" stroke="black" cx="155.5" cy="-185.84" rx="38.37" ry="21.43"/>
<text text-anchor="middle" x="155.5" y="-188.84" font-family="Helvetica,sans-Serif" font-size="10.00" fill="#000000">domblar.</text>
<text text-anchor="middle" x="155.5" y="-177.84" font-family="Helvetica,sans-Serif" font-size="10.00" fill="#000000">gestures</text>
</g>
<!-- domblar_gestures&#45;&gt;domblar_chord_theory -->
<g id="edge10" class="edge">
<title>domblar_gestures&#45;&gt;domblar_chord_theory</title><style>.edge>path:hover{stroke-width:8}</style>
<path fill="none" stroke="black" d="M163.49,-164.46C167.35,-154.6 172.07,-142.56 176.36,-131.6"/>
<polygon fill="#c2c247" stroke="black" points="179.53,-133.12 179.92,-122.54 173.01,-130.57 179.53,-133.12"/>
</g>
<!-- domblar_mos_projections -->
<g id="node8" class="node">
<title>domblar_mos_projections</title><style>.edge>path:hover{stroke-width:8}</style>
<ellipse fill="#a4a446" stroke="black" cx="914.5" cy="-366.03" rx="62.45" ry="21.43"/>
<text text-anchor="middle" x="914.5" y="-369.03" font-family="Helvetica,sans-Serif" font-size="10.00" fill="#000000">domblar.</text>
<text text-anchor="middle" x="914.5" y="-358.03" font-family="Helvetica,sans-Serif" font-size="10.00" fill="#000000">mos_projections</text>
</g>
<!-- domblar_music_math -->
<g id="node9" class="node">
<title>domblar_music_math</title><style>.edge>path:hover{stroke-width:8}</style>
<ellipse fill="#dbdb2f" stroke="black" cx="213.5" cy="-444.46" rx="49.49" ry="21.43"/>
<text text-anchor="middle" x="213.5" y="-447.46" font-family="Helvetica,sans-Serif" font-size="10.00" fill="#000000">domblar.</text>
<text text-anchor="middle" x="213.5" y="-436.46" font-family="Helvetica,sans-Serif" font-size="10.00" fill="#000000">music_math</text>
</g>
<!-- domblar_music_math&#45;&gt;domblar_edo -->
<g id="edge11" class="edge">
<title>domblar_music_math&#45;&gt;domblar_edo</title><style>.edge>path:hover{stroke-width:8}</style>
<path fill="none" stroke="black" d="M213.5,-365.03C219.55,-348.11 256.34,-320.39 284.01,-301.42"/>
<polygon fill="#dbdb2f" stroke="black" points="285.78,-304.45 292.1,-295.95 281.86,-298.65 285.78,-304.45"/>
</g>
<!-- domblar_sc3_client -->
<g id="node13" class="node">
<title>domblar_sc3_client</title><style>.edge>path:hover{stroke-width:8}</style>
<ellipse fill="#bcbc2f" stroke="black" cx="426.5" cy="-279.83" rx="37.45" ry="28.98"/>
<text text-anchor="middle" x="426.5" y="-288.33" font-family="Helvetica,sans-Serif" font-size="10.00" fill="#000000">domblar.</text>
<text text-anchor="middle" x="426.5" y="-277.33" font-family="Helvetica,sans-Serif" font-size="10.00" fill="#000000">sc3.</text>
<text text-anchor="middle" x="426.5" y="-266.33" font-family="Helvetica,sans-Serif" font-size="10.00" fill="#000000">client</text>
</g>
<!-- domblar_music_math&#45;&gt;domblar_sc3_client -->
<g id="edge12" class="edge">
<title>domblar_music_math&#45;&gt;domblar_sc3_client</title><style>.edge>path:hover{stroke-width:8}</style>
<path fill="none" stroke="black" d="M213.5,-365.03C237.74,-297.21 298.94,-336.35 365.5,-308.82 371.71,-306.25 378.21,-303.42 384.57,-300.57"/>
<polygon fill="#dbdb2f" stroke="black" points="386,-303.76 393.66,-296.44 383.11,-297.39 386,-303.76"/>
</g>
<!-- domblar_music_math&#45;&gt;domblar_tonal_theory -->
<g id="edge13" class="edge">
<title>domblar_music_math&#45;&gt;domblar_tonal_theory</title><style>.edge>path:hover{stroke-width:8}</style>
<path fill="none" stroke="black" d="M213.5,-365.03C228.62,-322.73 161.11,-340.73 129.5,-308.82 102.4,-281.46 79.27,-243.57 64.95,-217.31"/>
<polygon fill="#dbdb2f" stroke="black" points="68.05,-215.69 60.26,-208.52 61.88,-218.99 68.05,-215.69"/>
<path fill="none" stroke="black" d="M209.83,-422.71C207.91,-406.97 207.11,-385.04 213.5,-367.03"/>
</g>
<!-- domblar_players&#45;&gt;domblar_domblar -->
<g id="edge14" class="edge">
<title>domblar_players&#45;&gt;domblar_domblar</title><style>.edge>path:hover{stroke-width:8}</style>
<path fill="none" stroke="black" d="M437.83,-78.56C434.44,-70.72 430.49,-61.56 426.76,-52.93"/>
<polygon fill="#a8a838" stroke="black" points="430,-51.61 422.82,-43.81 423.58,-54.38 430,-51.61"/>
</g>
<!-- domblar_sc3 -->
<g id="node12" class="node">
<title>domblar_sc3</title><style>.edge>path:hover{stroke-width:8}</style>
<ellipse fill="#cece3b" stroke="black" cx="404.5" cy="-185.84" rx="40.74" ry="18"/>
<text text-anchor="middle" x="404.5" y="-183.34" font-family="Helvetica,sans-Serif" font-size="10.00" fill="#000000">domblar.sc3</text>
</g>
<!-- domblar_sc3&#45;&gt;domblar_domblar -->
<g id="edge15" class="edge">
<title>domblar_sc3&#45;&gt;domblar_domblar</title><style>.edge>path:hover{stroke-width:8}</style>
<path fill="none" stroke="black" d="M393.76,-168.08C384.15,-150.87 372.82,-123.44 381.5,-100.64"/>
</g>
<!-- domblar_sc3&#45;&gt;domblar_players -->
<g id="edge16" class="edge">
<title>domblar_sc3&#45;&gt;domblar_players</title><style>.edge>path:hover{stroke-width:8}</style>
<path fill="none" stroke="black" d="M413,-167.8C418.32,-157.14 425.32,-143.11 431.54,-130.63"/>
<polygon fill="#cece3b" stroke="black" points="434.53,-132.48 435.86,-121.97 428.26,-129.36 434.53,-132.48"/>
</g>
<!-- domblar_sc3_client&#45;&gt;domblar_domblar -->
<g id="edge17" class="edge">
<title>domblar_sc3_client&#45;&gt;domblar_domblar</title><style>.edge>path:hover{stroke-width:8}</style>
<path fill="none" stroke="black" d="M511.5,-98.64C495.04,-75.99 470.09,-56.66 449.48,-43.11"/>
<polygon fill="#bcbc2f" stroke="black" points="451.36,-40.16 441.05,-37.75 447.61,-46.07 451.36,-40.16"/>
<path fill="none" stroke="black" d="M511.5,-184.84C518.47,-148.07 533.49,-130.92 511.5,-100.64"/>
</g>
<!-- domblar_sc3_client&#45;&gt;domblar_players -->
<g id="edge18" class="edge">
<title>domblar_sc3_client&#45;&gt;domblar_players</title><style>.edge>path:hover{stroke-width:8}</style>
<path fill="none" stroke="black" d="M511.5,-184.84C516.11,-160.52 498.06,-138.58 479.83,-123.2"/>
<polygon fill="#bcbc2f" stroke="black" points="482.16,-120.58 472.15,-117.13 477.83,-126.07 482.16,-120.58"/>
<path fill="none" stroke="black" d="M455.02,-261.06C477.28,-244.96 505.42,-218.89 511.5,-186.84"/>
</g>
<!-- domblar_sc3_instruments -->
<g id="node14" class="node">
<title>domblar_sc3_instruments</title><style>.edge>path:hover{stroke-width:8}</style>
<ellipse fill="#c2c247" stroke="black" cx="297.5" cy="-185.84" rx="48.17" ry="28.98"/>
<text text-anchor="middle" x="297.5" y="-194.34" font-family="Helvetica,sans-Serif" font-size="10.00" fill="#000000">domblar.</text>
<text text-anchor="middle" x="297.5" y="-183.34" font-family="Helvetica,sans-Serif" font-size="10.00" fill="#000000">sc3.</text>
<text text-anchor="middle" x="297.5" y="-172.34" font-family="Helvetica,sans-Serif" font-size="10.00" fill="#000000">instruments</text>
</g>
<!-- domblar_sc3_instruments&#45;&gt;domblar_domblar -->
<g id="edge19" class="edge">
<title>domblar_sc3_instruments&#45;&gt;domblar_domblar</title><style>.edge>path:hover{stroke-width:8}</style>
<path fill="none" stroke="black" d="M329.41,-163.65C348.76,-148.68 371.58,-126.69 381.5,-100.64"/>
<path fill="none" stroke="black" d="M381.5,-98.64C387.27,-83.47 394.17,-66.83 400.09,-52.95"/>
<polygon fill="#c2c247" stroke="black" points="403.25,-54.46 403.98,-43.89 396.81,-51.7 403.25,-54.46"/>
</g>
<!-- domblar_tonal_theory&#45;&gt;domblar_chord_theory -->
<g id="edge20" class="edge">
<title>domblar_tonal_theory&#45;&gt;domblar_chord_theory</title><style>.edge>path:hover{stroke-width:8}</style>
<path fill="none" stroke="black" d="M77.63,-167.8C98.5,-155.16 127.19,-137.78 150.16,-123.87"/>
<polygon fill="#a8a838" stroke="black" points="151.9,-126.9 158.64,-118.73 148.27,-120.92 151.9,-126.9"/>
</g>
<!-- domblar_tracker&#45;&gt;domblar_domblar -->
<g id="edge21" class="edge">
<title>domblar_tracker&#45;&gt;domblar_domblar</title><style>.edge>path:hover{stroke-width:8}</style>
<path fill="none" stroke="black" d="M561.46,-166.02C548.08,-149.11 528.1,-123.5 511.5,-100.64"/>
</g>
<!-- domblar_transformations -->
<g id="node17" class="node">
<title>domblar_transformations</title><style>.edge>path:hover{stroke-width:8}</style>
<ellipse fill="#c2c247" stroke="black" cx="197.5" cy="-279.83" rx="59.29" ry="21.43"/>
<text text-anchor="middle" x="197.5" y="-282.83" font-family="Helvetica,sans-Serif" font-size="10.00" fill="#000000">domblar.</text>
<text text-anchor="middle" x="197.5" y="-271.83" font-family="Helvetica,sans-Serif" font-size="10.00" fill="#000000">transformations</text>
</g>
<!-- domblar_transformations&#45;&gt;domblar_tonal_theory -->
<g id="edge22" class="edge">
<title>domblar_transformations&#45;&gt;domblar_tonal_theory</title><style>.edge>path:hover{stroke-width:8}</style>
<path fill="none" stroke="black" d="M168.61,-260.87C145.14,-246.29 111.89,-225.62 86.48,-209.83"/>
<polygon fill="#c2c247" stroke="black" points="88.44,-206.93 78.1,-204.62 84.74,-212.87 88.44,-206.93"/>
</g>
<!-- ipywidgets&#45;&gt;domblar_tracker -->
<g id="edge23" class="edge">
<title>ipywidgets&#45;&gt;domblar_tracker</title><style>.edge>path:hover{stroke-width:8}</style>
<path fill="none" stroke="black" d="M633.5,-353.7C606.27,-340.61 568.9,-316.22 568.5,-280.83"/>
</g>
<!-- mido -->
<g id="node19" class="node">
<title>mido</title><style>.edge>path:hover{stroke-width:8}</style>
<ellipse fill="#40bfc0" stroke="black" cx="941.5" cy="-519.67" rx="27" ry="18"/>
<text text-anchor="middle" x="941.5" y="-517.17" font-family="Helvetica,sans-Serif" font-size="10.00" fill="#000000">mido</text>
</g>
<!-- mido&#45;&gt;domblar_mos_projections -->
<g id="edge24" class="edge">
<title>mido&#45;&gt;domblar_mos_projections</title><style>.edge>path:hover{stroke-width:8}</style>
<path fill="none" stroke="black" d="M938.45,-501.57C934.03,-476.71 925.73,-430.14 920.16,-398.85"/>
<polygon fill="#40bfc0" stroke="black" points="923.64,-398.41 918.44,-389.18 916.75,-399.64 923.64,-398.41"/>
</g>
<!-- numpy -->
<g id="node20" class="node">
<title>numpy</title><style>.edge>path:hover{stroke-width:8}</style>
<ellipse fill="#3333cc" stroke="black" cx="869.5" cy="-519.67" rx="27.16" ry="18"/>
<text text-anchor="middle" x="869.5" y="-517.17" font-family="Helvetica,sans-Serif" font-size="10.00" fill="#ffffff">numpy</text>
</g>
<!-- numpy&#45;&gt;domblar_comma_pumps -->
<g id="edge25" class="edge">
<title>numpy&#45;&gt;domblar_comma_pumps</title><style>.edge>path:hover{stroke-width:8}</style>
<path fill="none" stroke="black" d="M886.5,-443.46C882.72,-415.02 857.1,-396.29 831.42,-384.5"/>
<polygon fill="#3333cc" stroke="black" points="832.83,-381.29 822.26,-380.6 830.09,-387.73 832.83,-381.29"/>
<path fill="none" stroke="black" d="M876.93,-501.97C882.63,-487.24 889.11,-465.12 886.5,-445.46"/>
</g>
<!-- numpy&#45;&gt;domblar_mos_projections -->
<g id="edge26" class="edge">
<title>numpy&#45;&gt;domblar_mos_projections</title><style>.edge>path:hover{stroke-width:8}</style>
<path fill="none" stroke="black" d="M886.5,-443.46C884.39,-427.61 889.62,-410.84 896.1,-397.06"/>
<polygon fill="#3333cc" stroke="black" points="899.04,-399 900.52,-388.51 892.82,-395.79 899.04,-399"/>
</g>
<!-- pyOSC3 -->
<g id="node21" class="node">
<title>pyOSC3</title><style>.edge>path:hover{stroke-width:8}</style>
<ellipse fill="#ce3bce" stroke="black" cx="627.5" cy="-519.67" rx="31.58" ry="18"/>
<text text-anchor="middle" x="627.5" y="-517.17" font-family="Helvetica,sans-Serif" font-size="10.00" fill="#ffffff">pyOSC3</text>
</g>
<!-- pyOSC3&#45;&gt;domblar_comma_pumps -->
<g id="edge27" class="edge">
<title>pyOSC3&#45;&gt;domblar_comma_pumps</title><style>.edge>path:hover{stroke-width:8}</style>
<path fill="none" stroke="black" d="M656.58,-512.26C693.29,-502.92 756.68,-482.51 798.5,-445.46"/>
<path fill="none" stroke="black" d="M798.5,-443.46C811.72,-431.74 806.06,-412.73 797.05,-396.6"/>
<polygon fill="#ce3bce" stroke="black" points="800.17,-394.99 791.94,-388.31 794.21,-398.66 800.17,-394.99"/>
</g>
<!-- pyOSC3&#45;&gt;domblar_mos_projections -->
<g id="edge28" class="edge">
<title>pyOSC3&#45;&gt;domblar_mos_projections</title><style>.edge>path:hover{stroke-width:8}</style>
<path fill="none" stroke="black" d="M798.5,-443.46C821.22,-423.33 849.64,-404.52 872.66,-390.59"/>
<polygon fill="#ce3bce" stroke="black" points="874.39,-393.64 881.19,-385.52 870.81,-387.62 874.39,-393.64"/>
</g>
<!-- pyOSC3&#45;&gt;domblar_sc3_client -->
<g id="edge29" class="edge">
<title>pyOSC3&#45;&gt;domblar_sc3_client</title><style>.edge>path:hover{stroke-width:8}</style>
<path fill="none" stroke="black" d="M600.06,-510.18C577.02,-501.89 544.43,-487.35 522.5,-465.67 480.42,-424.08 452.91,-360.14 438.54,-319.42"/>
<polygon fill="#ce3bce" stroke="black" points="441.87,-318.35 435.32,-310.02 435.25,-320.61 441.87,-318.35"/>
</g>
</g>
</svg>
